<?xml version="1.0" encoding="us-ascii" standalone="no"?><svg xmlns="http://www.w3.org/2000/svg" xmlns:xlink="http://www.w3.org/1999/xlink" contentStyleType="text/css" height="828px" preserveAspectRatio="none" style="width:1278px;height:828px;background:#FFFFFF;" version="1.1" viewBox="0 0 1278 828" width="1278px" zoomAndPan="magnify"><defs/><g><rect fill="#FFFFFF" height="697.0547" style="stroke:#181818;stroke-width:1.0;" width="10" x="144" y="114.9609"/><rect fill="#FFFFFF" height="55.7031" style="stroke:#181818;stroke-width:1.0;" width="10" x="604" y="145.3125"/><rect fill="#FFFFFF" height="303.5156" style="stroke:#181818;stroke-width:1.0;" width="10" x="604" y="439.3125"/><rect fill="#FFFFFF" height="91.0547" style="stroke:#181818;stroke-width:1.0;" width="10" x="816" y="238.3672"/><rect fill="#FFFFFF" height="151.7578" style="stroke:#181818;stroke-width:1.0;" width="10" x="816" y="535.3672"/><rect fill="#FFFFFF" height="30.3516" style="stroke:#181818;stroke-width:1.0;" width="10" x="908" y="474.6641"/><rect fill="#FFFFFF" height="91.0547" style="stroke:#181818;stroke-width:1.0;" width="10" x="988" y="565.7188"/><rect fill="#FFFFFF" height="30.3516" style="stroke:#181818;stroke-width:1.0;" width="10" x="1223" y="268.7188"/><rect fill="#FFFFFF" height="30.3516" style="stroke:#181818;stroke-width:1.0;" width="10" x="1223" y="596.0703"/><rect fill="none" height="48.7031" style="stroke:#000000;stroke-width:1.5;" width="604.5" x="101" y="160.3125"/><rect fill="none" height="459.5938" style="stroke:#000000;stroke-width:1.5;" width="1180.5" x="91" y="344.4219"/><rect fill="none" height="94.8906" style="stroke:#000000;stroke-width:1.5;" width="604.5" x="101" y="702.125"/><line style="stroke:#181818;stroke-width:0.5;stroke-dasharray:5.0,5.0;" x1="27" x2="27" y1="82.6094" y2="821.0156"/><line style="stroke:#181818;stroke-width:0.5;stroke-dasharray:5.0,5.0;" x1="149" x2="149" y1="82.6094" y2="821.0156"/><line style="stroke:#181818;stroke-width:0.5;stroke-dasharray:5.0,5.0;" x1="608.5" x2="608.5" y1="82.6094" y2="821.0156"/><line style="stroke:#181818;stroke-width:0.5;stroke-dasharray:5.0,5.0;" x1="820.5" x2="820.5" y1="82.6094" y2="821.0156"/><line style="stroke:#181818;stroke-width:0.5;stroke-dasharray:5.0,5.0;" x1="912.5" x2="912.5" y1="82.6094" y2="821.0156"/><line style="stroke:#181818;stroke-width:0.5;stroke-dasharray:5.0,5.0;" x1="992.5" x2="992.5" y1="82.6094" y2="821.0156"/><line style="stroke:#181818;stroke-width:0.5;stroke-dasharray:5.0,5.0;" x1="1227.5" x2="1227.5" y1="82.6094" y2="821.0156"/><text fill="#000000" font-family="sans-serif" font-size="14" lengthAdjust="spacing" textLength="38" x="5" y="79.5332">Guest</text><ellipse cx="27" cy="13.5" fill="#E2E2F0" rx="8" ry="8" style="stroke:#181818;stroke-width:0.5;"/><path d="M27,21.5 L27,48.5 M14,29.5 L40,29.5 M27,48.5 L14,63.5 M27,48.5 L40,63.5 " fill="none" style="stroke:#181818;stroke-width:0.5;"/><text fill="#000000" font-family="sans-serif" font-size="14" lengthAdjust="spacing" textLength="70" x="111" y="79.5332">register.jsp</text><path d="M128.5,37 L128.5,61 M128.5,49 L145.5,49 " fill="none" style="stroke:#181818;stroke-width:0.5;"/><ellipse cx="157.5" cy="49" fill="#E2E2F0" rx="12" ry="12" style="stroke:#181818;stroke-width:0.5;"/><text fill="#000000" font-family="sans-serif" font-size="14" lengthAdjust="spacing" textLength="167" x="522.5" y="79.5332">RegisterController#doPost</text><ellipse cx="609" cy="49" fill="#E2E2F0" rx="12" ry="12" style="stroke:#181818;stroke-width:0.5;"/><polygon fill="#181818" points="605,37,611,32,609,37,611,42,605,37" style="stroke:#181818;stroke-width:1.0;"/><text fill="#000000" font-family="sans-serif" font-size="14" lengthAdjust="spacing" textLength="91" x="772.5" y="79.5332">CustomerDAO</text><ellipse cx="821" cy="49" fill="#E2E2F0" rx="12" ry="12" style="stroke:#181818;stroke-width:0.5;"/><line style="stroke:#181818;stroke-width:0.5;" x1="809" x2="833" y1="63" y2="63"/><text fill="#000000" font-family="sans-serif" font-size="14" lengthAdjust="spacing" textLength="61" x="879.5" y="79.5332">Customer</text><ellipse cx="913" cy="49" fill="#E2E2F0" rx="12" ry="12" style="stroke:#181818;stroke-width:0.5;"/><line style="stroke:#181818;stroke-width:0.5;" x1="901" x2="925" y1="63" y2="63"/><text fill="#000000" font-family="sans-serif" font-size="14" lengthAdjust="spacing" textLength="67" x="956.5" y="79.5332">DBContext</text><ellipse cx="993" cy="49" fill="#E2E2F0" rx="12" ry="12" style="stroke:#181818;stroke-width:0.5;"/><polygon fill="#181818" points="989,37,995,32,993,37,995,42,989,37" style="stroke:#181818;stroke-width:1.0;"/><text fill="#000000" font-family="sans-serif" font-size="14" lengthAdjust="spacing" textLength="61" x="1194.5" y="79.5332">Database</text><path d="M1210,29 C1210,19 1228,19 1228,19 C1228,19 1246,19 1246,29 L1246,55 C1246,65 1228,65 1228,65 C1228,65 1210,65 1210,55 L1210,29 " fill="#E2E2F0" style="stroke:#181818;stroke-width:1.5;"/><path d="M1210,29 C1210,39 1228,39 1228,39 C1228,39 1246,39 1246,29 " fill="none" style="stroke:#181818;stroke-width:1.5;"/><rect fill="#FFFFFF" height="697.0547" style="stroke:#181818;stroke-width:1.0;" width="10" x="144" y="114.9609"/><rect fill="#FFFFFF" height="55.7031" style="stroke:#181818;stroke-width:1.0;" width="10" x="604" y="145.3125"/><rect fill="#FFFFFF" height="303.5156" style="stroke:#181818;stroke-width:1.0;" width="10" x="604" y="439.3125"/><rect fill="#FFFFFF" height="91.0547" style="stroke:#181818;stroke-width:1.0;" width="10" x="816" y="238.3672"/><rect fill="#FFFFFF" height="151.7578" style="stroke:#181818;stroke-width:1.0;" width="10" x="816" y="535.3672"/><rect fill="#FFFFFF" height="30.3516" style="stroke:#181818;stroke-width:1.0;" width="10" x="908" y="474.6641"/><rect fill="#FFFFFF" height="91.0547" style="stroke:#181818;stroke-width:1.0;" width="10" x="988" y="565.7188"/><rect fill="#FFFFFF" height="30.3516" style="stroke:#181818;stroke-width:1.0;" width="10" x="1223" y="268.7188"/><rect fill="#FFFFFF" height="30.3516" style="stroke:#181818;stroke-width:1.0;" width="10" x="1223" y="596.0703"/><polygon fill="#181818" points="132,110.9609,142,114.9609,132,118.9609,136,114.9609" style="stroke:#181818;stroke-width:1.0;"/><line style="stroke:#181818;stroke-width:1.0;" x1="27" x2="138" y1="114.9609" y2="114.9609"/><text fill="#000000" font-family="sans-serif" font-size="13" font-weight="bold" lengthAdjust="spacing" textLength="7" x="34" y="110.1045">1</text><text fill="#000000" font-family="sans-serif" font-size="13" lengthAdjust="spacing" textLength="87" x="45" y="110.1045">1. Click submit</text><polygon fill="#181818" points="592,141.3125,602,145.3125,592,149.3125,596,145.3125" style="stroke:#181818;stroke-width:1.0;"/><line style="stroke:#181818;stroke-width:1.0;" x1="154" x2="598" y1="145.3125" y2="145.3125"/><text fill="#000000" font-family="sans-serif" font-size="13" font-weight="bold" lengthAdjust="spacing" textLength="7" x="161" y="140.4561">2</text><text fill="#000000" font-family="sans-serif" font-size="13" lengthAdjust="spacing" textLength="420" x="172" y="140.4561">2. POST /register (name, phone, email, password, address, dob, gender)</text><path d="M101,160.3125 L166,160.3125 L166,168.6641 L156,178.6641 L101,178.6641 L101,160.3125 " fill="#EEEEEE" style="stroke:#000000;stroke-width:1.5;"/><rect fill="none" height="48.7031" style="stroke:#000000;stroke-width:1.5;" width="604.5" x="101" y="160.3125"/><text fill="#000000" font-family="sans-serif" font-size="13" font-weight="bold" lengthAdjust="spacing" textLength="20" x="116" y="174.8076">opt</text><a href="invalid" target="_top" title="invalid" xlink:actuate="onRequest" xlink:href="invalid" xlink:show="new" xlink:title="invalid" xlink:type="simple"><text fill="#0000FF" font-family="sans-serif" font-size="11" font-weight="bold" lengthAdjust="spacing" text-decoration="underline" textLength="23" x="181" y="173.7314">data</text></a><polygon fill="#181818" points="165,197.0156,155,201.0156,165,205.0156,161,201.0156" style="stroke:#181818;stroke-width:1.0;"/><line style="stroke:#181818;stroke-width:1.0;stroke-dasharray:2.0,2.0;" x1="159" x2="608" y1="201.0156" y2="201.0156"/><text fill="#000000" font-family="sans-serif" font-size="13" font-weight="bold" lengthAdjust="spacing" textLength="7" x="171" y="196.1592">3</text><text fill="#000000" font-family="sans-serif" font-size="13" lengthAdjust="spacing" textLength="152" x="182" y="196.1592">2.1 Display error message</text><polygon fill="#181818" points="804,234.3672,814,238.3672,804,242.3672,808,238.3672" style="stroke:#181818;stroke-width:1.0;"/><line style="stroke:#181818;stroke-width:1.0;" x1="609" x2="810" y1="238.3672" y2="238.3672"/><text fill="#000000" font-family="sans-serif" font-size="13" font-weight="bold" lengthAdjust="spacing" textLength="7" x="616" y="233.5107">4</text><text fill="#000000" font-family="sans-serif" font-size="13" lengthAdjust="spacing" textLength="177" x="627" y="233.5107">3. getCustomerByEmail(email)</text><polygon fill="#181818" points="1211,264.7188,1221,268.7188,1211,272.7188,1215,268.7188" style="stroke:#181818;stroke-width:1.0;"/><line style="stroke:#181818;stroke-width:1.0;" x1="826" x2="1217" y1="268.7188" y2="268.7188"/><text fill="#000000" font-family="sans-serif" font-size="13" font-weight="bold" lengthAdjust="spacing" textLength="7" x="833" y="263.8623">5</text><text fill="#000000" font-family="sans-serif" font-size="13" lengthAdjust="spacing" textLength="118" x="844" y="263.8623">4. SELECT by email</text><polygon fill="#181818" points="837,295.0703,827,299.0703,837,303.0703,833,299.0703" style="stroke:#181818;stroke-width:1.0;"/><line style="stroke:#181818;stroke-width:1.0;stroke-dasharray:2.0,2.0;" x1="831" x2="1227" y1="299.0703" y2="299.0703"/><text fill="#000000" font-family="sans-serif" font-size="13" font-weight="bold" lengthAdjust="spacing" textLength="7" x="843" y="294.2139">6</text><text fill="#000000" font-family="sans-serif" font-size="13" lengthAdjust="spacing" textLength="95" x="854" y="294.2139">5. Customer/null</text><polygon fill="#181818" points="620,325.4219,610,329.4219,620,333.4219,616,329.4219" style="stroke:#181818;stroke-width:1.0;"/><line style="stroke:#181818;stroke-width:1.0;stroke-dasharray:2.0,2.0;" x1="614" x2="820" y1="329.4219" y2="329.4219"/><text fill="#000000" font-family="sans-serif" font-size="13" font-weight="bold" lengthAdjust="spacing" textLength="7" x="626" y="324.5654">7</text><text fill="#000000" font-family="sans-serif" font-size="13" lengthAdjust="spacing" textLength="95" x="637" y="324.5654">6. Customer/null</text><path d="M91,344.4219 L152,344.4219 L152,352.7734 L142,362.7734 L91,362.7734 L91,344.4219 " fill="#EEEEEE" style="stroke:#000000;stroke-width:1.5;"/><rect fill="none" height="459.5938" style="stroke:#000000;stroke-width:1.5;" width="1180.5" x="91" y="344.4219"/><text fill="#000000" font-family="sans-serif" font-size="13" font-weight="bold" lengthAdjust="spacing" textLength="16" x="106" y="358.917">alt</text><a href="email" target="_top" title="email" xlink:actuate="onRequest" xlink:href="email" xlink:show="new" xlink:title="email" xlink:type="simple"><text fill="#0000FF" font-family="sans-serif" font-size="11" font-weight="bold" lengthAdjust="spacing" text-decoration="underline" textLength="41" x="167" y="357.8408">existed</text></a><polygon fill="#181818" points="165,381.125,155,385.125,165,389.125,161,385.125" style="stroke:#181818;stroke-width:1.0;"/><line style="stroke:#181818;stroke-width:1.0;stroke-dasharray:2.0,2.0;" x1="159" x2="608" y1="385.125" y2="385.125"/><text fill="#000000" font-family="sans-serif" font-size="13" font-weight="bold" lengthAdjust="spacing" textLength="7" x="171" y="380.2686">8</text><text fill="#000000" font-family="sans-serif" font-size="13" lengthAdjust="spacing" textLength="301" x="182" y="380.2686">7. Forward register.jsp with error "Email &#273;&#227; &#273;&#259;ng k&#253;"</text><line style="stroke:#000000;stroke-width:1.0;stroke-dasharray:2.0,2.0;" x1="91" x2="1271.5" y1="394.125" y2="394.125"/><a href="email" target="_top" title="email" xlink:actuate="onRequest" xlink:href="email" xlink:show="new" xlink:title="email" xlink:type="simple"><text fill="#0000FF" font-family="sans-serif" font-size="11" font-weight="bold" lengthAdjust="spacing" text-decoration="underline" textLength="62" x="96" y="405.5439">not existed</text></a><line style="stroke:#181818;stroke-width:1.0;" x1="609" x2="656" y1="426.3125" y2="426.3125"/><line style="stroke:#181818;stroke-width:1.0;" x1="656" x2="656" y1="426.3125" y2="439.3125"/><line style="stroke:#181818;stroke-width:1.0;" x1="615" x2="656" y1="439.3125" y2="439.3125"/><polygon fill="#181818" points="625,435.3125,615,439.3125,625,443.3125,621,439.3125" style="stroke:#181818;stroke-width:1.0;"/><text fill="#000000" font-family="sans-serif" font-size="13" font-weight="bold" lengthAdjust="spacing" textLength="7" x="621" y="421.4561">9</text><text fill="#000000" font-family="sans-serif" font-size="13" lengthAdjust="spacing" textLength="149" x="632" y="421.4561">8. hash = MD5(password)</text><polygon fill="#181818" points="896,470.6641,906,474.6641,896,478.6641,900,474.6641" style="stroke:#181818;stroke-width:1.0;"/><line style="stroke:#181818;stroke-width:1.0;" x1="614" x2="902" y1="474.6641" y2="474.6641"/><text fill="#000000" font-family="sans-serif" font-size="13" font-weight="bold" lengthAdjust="spacing" textLength="14" x="621" y="469.8076">10</text><text fill="#000000" font-family="sans-serif" font-size="13" lengthAdjust="spacing" textLength="145" x="639" y="469.8076">9. Init Customer instance</text><polygon fill="#181818" points="625,501.0156,615,505.0156,625,509.0156,621,505.0156" style="stroke:#181818;stroke-width:1.0;"/><line style="stroke:#181818;stroke-width:1.0;stroke-dasharray:2.0,2.0;" x1="619" x2="912" y1="505.0156" y2="505.0156"/><text fill="#000000" font-family="sans-serif" font-size="13" font-weight="bold" lengthAdjust="spacing" textLength="14" x="631" y="500.1592">11</text><text fill="#000000" font-family="sans-serif" font-size="13" lengthAdjust="spacing" textLength="120" x="649" y="500.1592">10. Return Customer</text><polygon fill="#181818" points="804,531.3672,814,535.3672,804,539.3672,808,535.3672" style="stroke:#181818;stroke-width:1.0;"/><line style="stroke:#181818;stroke-width:1.0;" x1="614" x2="810" y1="535.3672" y2="535.3672"/><text fill="#000000" font-family="sans-serif" font-size="13" font-weight="bold" lengthAdjust="spacing" textLength="14" x="621" y="530.5107">12</text><text fill="#000000" font-family="sans-serif" font-size="13" lengthAdjust="spacing" textLength="118" x="639" y="530.5107">11. insert(Customer)</text><polygon fill="#181818" points="976,561.7188,986,565.7188,976,569.7188,980,565.7188" style="stroke:#181818;stroke-width:1.0;"/><line style="stroke:#181818;stroke-width:1.0;" x1="826" x2="982" y1="565.7188" y2="565.7188"/><text fill="#000000" font-family="sans-serif" font-size="13" font-weight="bold" lengthAdjust="spacing" textLength="14" x="833" y="560.8623">13</text><text fill="#000000" font-family="sans-serif" font-size="13" lengthAdjust="spacing" textLength="120" x="851" y="560.8623">12. Open connection</text><polygon fill="#181818" points="1211,592.0703,1221,596.0703,1211,600.0703,1215,596.0703" style="stroke:#181818;stroke-width:1.0;"/><line style="stroke:#181818;stroke-width:1.0;" x1="998" x2="1217" y1="596.0703" y2="596.0703"/><text fill="#000000" font-family="sans-serif" font-size="13" font-weight="bold" lengthAdjust="spacing" textLength="14" x="1005" y="591.2139">14</text><text fill="#000000" font-family="sans-serif" font-size="13" lengthAdjust="spacing" textLength="128" x="1023" y="591.2139">13. INSERT Customer</text><polygon fill="#181818" points="1009,622.4219,999,626.4219,1009,630.4219,1005,626.4219" style="stroke:#181818;stroke-width:1.0;"/><line style="stroke:#181818;stroke-width:1.0;stroke-dasharray:2.0,2.0;" x1="1003" x2="1227" y1="626.4219" y2="626.4219"/><text fill="#000000" font-family="sans-serif" font-size="13" font-weight="bold" lengthAdjust="spacing" textLength="14" x="1015" y="621.5654">15</text><text fill="#000000" font-family="sans-serif" font-size="13" lengthAdjust="spacing" textLength="183" x="1033" y="621.5654">14. Insert result (id or rowcount)</text><polygon fill="#181818" points="837,652.7734,827,656.7734,837,660.7734,833,656.7734" style="stroke:#181818;stroke-width:1.0;"/><line style="stroke:#181818;stroke-width:1.0;stroke-dasharray:2.0,2.0;" x1="831" x2="992" y1="656.7734" y2="656.7734"/><text fill="#000000" font-family="sans-serif" font-size="13" font-weight="bold" lengthAdjust="spacing" textLength="14" x="843" y="651.917">16</text><text fill="#000000" font-family="sans-serif" font-size="13" lengthAdjust="spacing" textLength="90" x="861" y="651.917">15. Insert result</text><polygon fill="#181818" points="625,683.125,615,687.125,625,691.125,621,687.125" style="stroke:#181818;stroke-width:1.0;"/><line style="stroke:#181818;stroke-width:1.0;stroke-dasharray:2.0,2.0;" x1="619" x2="820" y1="687.125" y2="687.125"/><text fill="#000000" font-family="sans-serif" font-size="13" font-weight="bold" lengthAdjust="spacing" textLength="14" x="631" y="682.2686">17</text><text fill="#000000" font-family="sans-serif" font-size="13" lengthAdjust="spacing" textLength="90" x="649" y="682.2686">16. Insert result</text><path d="M101,702.125 L162,702.125 L162,710.4766 L152,720.4766 L101,720.4766 L101,702.125 " fill="#EEEEEE" style="stroke:#000000;stroke-width:1.5;"/><rect fill="none" height="94.8906" style="stroke:#000000;stroke-width:1.5;" width="604.5" x="101" y="702.125"/><text fill="#000000" font-family="sans-serif" font-size="13" font-weight="bold" lengthAdjust="spacing" textLength="16" x="116" y="716.6201">alt</text><a href="insert" target="_top" title="insert" xlink:actuate="onRequest" xlink:href="insert" xlink:show="new" xlink:title="insert" xlink:type="simple"><text fill="#0000FF" font-family="sans-serif" font-size="11" font-weight="bold" lengthAdjust="spacing" text-decoration="underline" textLength="47" x="177" y="715.5439">success</text></a><polygon fill="#181818" points="165,738.8281,155,742.8281,165,746.8281,161,742.8281" style="stroke:#181818;stroke-width:1.0;"/><line style="stroke:#181818;stroke-width:1.0;stroke-dasharray:2.0,2.0;" x1="159" x2="608" y1="742.8281" y2="742.8281"/><text fill="#000000" font-family="sans-serif" font-size="13" font-weight="bold" lengthAdjust="spacing" textLength="14" x="171" y="737.9717">18</text><text fill="#000000" font-family="sans-serif" font-size="13" lengthAdjust="spacing" textLength="122" x="189" y="737.9717">17. Redirect login.jsp</text><line style="stroke:#000000;stroke-width:1.0;stroke-dasharray:2.0,2.0;" x1="101" x2="705.5" y1="751.8281" y2="751.8281"/><a href="insert" target="_top" title="insert" xlink:actuate="onRequest" xlink:href="insert" xlink:show="new" xlink:title="insert" xlink:type="simple"><text fill="#0000FF" font-family="sans-serif" font-size="11" font-weight="bold" lengthAdjust="spacing" text-decoration="underline" textLength="16" x="106" y="763.2471">fail</text></a><polygon fill="#181818" points="165,785.0156,155,789.0156,165,793.0156,161,789.0156" style="stroke:#181818;stroke-width:1.0;"/><line style="stroke:#181818;stroke-width:1.0;stroke-dasharray:2.0,2.0;" x1="159" x2="608" y1="789.0156" y2="789.0156"/><text fill="#000000" font-family="sans-serif" font-size="13" font-weight="bold" lengthAdjust="spacing" textLength="14" x="171" y="784.1592">19</text><text fill="#000000" font-family="sans-serif" font-size="13" lengthAdjust="spacing" textLength="279" x="189" y="784.1592">18. Forward register.jsp with error "Internal error"</text><!--SRC=[ZLJDRjf04BxlKupe1IHmwZGaQQL6AePMYTA2W5lLmzexWMtiNRIx3d3k4_GP-Xmz9G_MMVzXGGwzOA_dss- - -MO6dZkjyYn6mpYzyiJ99-uGj69hAH0Uj7QntZ564MtWIuxMiLZdId2pXux1bRGEJV3JRZh0BTmjPYpHoXcTGcTUHQFoGuhcZT0pRLq1ZPRpUuRAIKT4KMwTpj2CFqsB83rFOcLWEJqa68yyDUvAGZenmHsFkKMALMzLYB52Emnkl4Ru0640KIgJHx1vd4d7_5SAUbKKFGzWDbqiuQok4BgAPzY7pLehUc36PKedRkrM6z47BeH1Q_iWTDo75Ig1fiUOtZZuBjKJJwK0B-u7WpB7e55o7eGmbdQJyZsWCMHpHanyXGGb7Y0EniexDzuOkl8ke1IkDcQqdtWvtK9KZtc8Huu8U170Od8_YPOGxqlHZBuF6g8XkL2ndAayJSlB1nykZ-ECfrHHmGIuyzQ8Lqgw2k2pDbjk1BH71BRIhQiQEuLcUFdz_8T-Ndwf5Jm-_-qmJAbxLGAbtMcIHjjr06jkr_0Hlew7tReLlHQGXeLmxmEuLT8rXO1Krd6LU7yzebLk-3Q0ERhSg0RTfYii2sboY06DwzOOdxDnFV8Ocf_f1XNGg2gafQ9zWY9MDoQa5jv-MqpcotQckZSboOKNxXEHYJOdtxiqH6ITqTk4Lj3rQiw3jk7HbLfOgyJBOmXXYgQMHT4-90dDdpVyfA_XbVT7I4CrGQfNKlcs-ZajkbOnF53lNhz-_HzpSKiRRHHFotEdN0BwCn3_0000]--></g></svg>